{
    "accessors" : [{
        "bufferView" : 0, 
        "componentType" : 5123, 
        "count" : 79470, 
        "max" : [35689], 
        "min" : [0], 
        "type" : "SCALAR"
    }, {
        "bufferView" : 1, 
        "componentType" : 5126, 
        "count" : 35690, 
        "max" : [442.5, 102.5, 106.5], 
        "min" : [-354.5, -37.5, -8.5], 
        "type" : "VEC3"
    }, {
        "bufferView" : 2, 
        "componentType" : 5126, 
        "count" : 35690, 
        "max" : [1, 1, 1], 
        "min" : [-1, -1, -1], 
        "type" : "VEC3"
    }, {
        "bufferView" : 3, 
        "componentType" : 5126, 
        "count" : 35690, 
        "max" : [1, 1, 1, 1], 
        "min" : [-1, -1, -1, 1], 
        "type" : "VEC4"
    }, {
        "bufferView" : 4, 
        "componentType" : 5126, 
        "count" : 35690, 
        "max" : [0.933333, 1], 
        "min" : [0, 2.6e-05], 
        "type" : "VEC2"
    }, {
        "bufferView" : 5, 
        "componentType" : 5123, 
        "count" : 11364, 
        "max" : [7483], 
        "min" : [0], 
        "type" : "SCALAR"
    }, {
        "bufferView" : 6, 
        "componentType" : 5126, 
        "count" : 7484, 
        "max" : [-73.5, 40.5, 5.5], 
        "min" : [-349.5, -37.5, -6.5], 
        "type" : "VEC3"
    }, {
        "bufferView" : 7, 
        "componentType" : 5126, 
        "count" : 7484, 
        "max" : [1, 1, 1], 
        "min" : [-1, -1, -0.012909], 
        "type" : "VEC3"
    }, {
        "bufferView" : 8, 
        "componentType" : 5126, 
        "count" : 7484, 
        "max" : [1, 1, 1, 1], 
        "min" : [-1, -1, -1, 1], 
        "type" : "VEC4"
    }, {
        "bufferView" : 9, 
        "componentType" : 5126, 
        "count" : 7484, 
        "max" : [0.766667, 0.933333], 
        "min" : [0.133438, 0.000104], 
        "type" : "VEC2"
    }, {
        "bufferView" : 10, 
        "componentType" : 5123, 
        "count" : 35490, 
        "max" : [23575], 
        "min" : [0], 
        "type" : "SCALAR"
    }, {
        "bufferView" : 11, 
        "componentType" : 5126, 
        "count" : 23576, 
        "max" : [-66.5, 42.5, 5.5], 
        "min" : [-133.5, 0.5, -7.5], 
        "type" : "VEC3"
    }, {
        "bufferView" : 12, 
        "componentType" : 5126, 
        "count" : 23576, 
        "max" : [1, 1, 1], 
        "min" : [-1, -1, -1], 
        "type" : "VEC3"
    }, {
        "bufferView" : 13, 
        "componentType" : 5126, 
        "count" : 23576, 
        "max" : [1, 1, 1, 1], 
        "min" : [-1, -1, -1, 1], 
        "type" : "VEC4"
    }, {
        "bufferView" : 14, 
        "componentType" : 5126, 
        "count" : 23576, 
        "max" : [0.666667, 1], 
        "min" : [0.133333, 0.166667], 
        "type" : "VEC2"
    }], 
    "asset" : {
        "generator" : "Khronos Blender glTF 2.0 exporter", 
        "version" : "2.0"
    }, 
    "bufferViews" : [{
        "buffer" : 0, 
        "byteLength" : 158940, 
        "byteOffset" : 0, 
        "target" : 34963
    }, {
        "buffer" : 0, 
        "byteLength" : 428280, 
        "byteOffset" : 158940, 
        "target" : 34962
    }, {
        "buffer" : 0, 
        "byteLength" : 428280, 
        "byteOffset" : 587220, 
        "target" : 34962
    }, {
        "buffer" : 0, 
        "byteLength" : 571040, 
        "byteOffset" : 1015500, 
        "target" : 34962
    }, {
        "buffer" : 0, 
        "byteLength" : 285520, 
        "byteOffset" : 1586540, 
        "target" : 34962
    }, {
        "buffer" : 0, 
        "byteLength" : 22728, 
        "byteOffset" : 1872060, 
        "target" : 34963
    }, {
        "buffer" : 0, 
        "byteLength" : 89808, 
        "byteOffset" : 1894788, 
        "target" : 34962
    }, {
        "buffer" : 0, 
        "byteLength" : 89808, 
        "byteOffset" : 1984596, 
        "target" : 34962
    }, {
        "buffer" : 0, 
        "byteLength" : 119744, 
        "byteOffset" : 2074404, 
        "target" : 34962
    }, {
        "buffer" : 0, 
        "byteLength" : 59872, 
        "byteOffset" : 2194148, 
        "target" : 34962
    }, {
        "buffer" : 0, 
        "byteLength" : 70980, 
        "byteOffset" : 2254020, 
        "target" : 34963
    }, {
        "buffer" : 0, 
        "byteLength" : 282912, 
        "byteOffset" : 2325000, 
        "target" : 34962
    }, {
        "buffer" : 0, 
        "byteLength" : 282912, 
        "byteOffset" : 2607912, 
        "target" : 34962
    }, {
        "buffer" : 0, 
        "byteLength" : 377216, 
        "byteOffset" : 2890824, 
        "target" : 34962
    }, {
        "buffer" : 0, 
        "byteLength" : 188608, 
        "byteOffset" : 3268040, 
        "target" : 34962
    }], 
    "buffers" : [{
        "byteLength" : 3456648, 
        "uri" : "level.bin"
    }], 
    "images" : [{
        "uri" : "hyptosis_tile-art-batch-1.png"
    }, {
        "uri" : "hyptosis_tile-art-batch-2.png"
    }, {
        "uri" : "hyptosis_tile-art-batch-3.png"
    }], 
    "materials" : [{
        "name" : "hyptosis_tile-art-batch-1", 
        "occlusionTexture" : {
            "index" : 0
        }, 
        "pbrMetallicRoughness" : {
            "baseColorFactor" : [0.64, 0.64, 0.64, 1], 
            "baseColorTexture" : {
                "index" : 0
            }, 
            "metallicFactor" : 0
        }
    }, {
        "name" : "hyptosis_tile-art-batch-2", 
        "occlusionTexture" : {
            "index" : 1
        }, 
        "pbrMetallicRoughness" : {
            "baseColorFactor" : [0.64, 0.64, 0.64, 1], 
            "baseColorTexture" : {
                "index" : 1
            }, 
            "metallicFactor" : 0
        }
    }, {
        "name" : "hyptosis_tile-art-batch-3", 
        "occlusionTexture" : {
            "index" : 2
        }, 
        "pbrMetallicRoughness" : {
            "baseColorFactor" : [0.64, 0.64, 0.64, 1], 
            "baseColorTexture" : {
                "index" : 2
            }, 
            "metallicFactor" : 0
        }
    }], 
    "meshes" : [{
        "name" : "level.001", 
        "primitives" : [{
            "attributes" : {
                "NORMAL" : 2, 
                "POSITION" : 1, 
                "TANGENT" : 3, 
                "TEXCOORD_0" : 4
            }, 
            "indices" : 0, 
            "material" : 0
        }, {
            "attributes" : {
                "NORMAL" : 7, 
                "POSITION" : 6, 
                "TANGENT" : 8, 
                "TEXCOORD_0" : 9
            }, 
            "indices" : 5, 
            "material" : 2
        }, {
            "attributes" : {
                "NORMAL" : 12, 
                "POSITION" : 11, 
                "TANGENT" : 13, 
                "TEXCOORD_0" : 14
            }, 
            "indices" : 10, 
            "material" : 1
        }]
    }], 
    "nodes" : [{
        "mesh" : 0, 
        "name" : "level.001"
    }], 
    "samplers" : [{}], 
    "scene" : 0, 
    "scenes" : [{
        "name" : "Scene", 
        "nodes" : [0]
    }], 
    "textures" : [{
        "sampler" : 0, 
        "source" : 0
    }, {
        "sampler" : 0, 
        "source" : 1
    }, {
        "sampler" : 0, 
        "source" : 2
    }]
}
